<svg xmlns="http://www.w3.org/2000/svg" xmlns:xlink="http://www.w3.org/1999/xlink" viewBox="0 0 484.7 484.7"><defs><style>.cls-1{stroke:#000;fill:url(#radial-gradient);}.cls-1,.cls-2,.cls-3,.cls-4,.cls-5{stroke-miterlimit:10;}.cls-2{stroke:#a67c52;fill:url(#radial-gradient-2);}.cls-2,.cls-3,.cls-4,.cls-5{stroke-width:4px;}.cls-3{fill:#ff647e;stroke:#ff3f70;}.cls-4{fill:none;}.cls-4,.cls-5{stroke:#e6e6e6;}.cls-5,.cls-6{fill:#fff;}</style><radialGradient id="radial-gradient" cx="242.35" cy="242.35" r="241.85" gradientUnits="userSpaceOnUse"><stop offset="0.02" stop-color="#6441a5"/><stop offset="0.46" stop-color="#6340a3"/><stop offset="0.62" stop-color="#5f3c9c"/><stop offset="0.74" stop-color="#583591"/><stop offset="0.83" stop-color="#4d2b80"/><stop offset="0.91" stop-color="#401e6a"/><stop offset="0.98" stop-color="#300e4f"/><stop offset="1" stop-color="#2a0845"/></radialGradient><radialGradient id="radial-gradient-2" cx="220" cy="224.83" r="160.7" gradientUnits="userSpaceOnUse"><stop offset="0.58" stop-color="#ffdc48"/><stop offset="0.78" stop-color="#ffd741"/><stop offset="1" stop-color="#fc3"/></radialGradient></defs><title>pluginicon</title><g id="Layer_2" data-name="Layer 2"><circle class="cls-1" cx="242.35" cy="242.35" r="241.85"/></g><g id="Layer_1" data-name="Layer 1"><path class="cls-2" d="M164.23,62.06c-5.94,9.69-43.15,72.72-18.89,146.62,4.12,12.55,19,57.88,61.81,83.9,71,43.16,165,.47,171.17,19.21C380.5,318.4,370,327.2,358,337c-21.2,17.37-63.19,51.79-126.92,50.52-11.4-.23-83.73-2.91-132.81-64.66C95.68,319.7,44.74,253.38,67,171.64c4.1-15.07,18.13-57.92,59.17-88.69A155.85,155.85,0,0,1,164.23,62.06Z" transform="translate(-8.65 -7.65)"/><polygon class="cls-3" points="364.9 150.22 334.14 156.88 322.19 186 306.35 158.81 274.96 156.45 295.93 132.97 288.48 102.4 317.28 115.08 344.06 98.55 340.89 129.86 364.9 150.22"/><polygon class="cls-3" points="217.36 155.52 206.66 144.44 191.45 146.97 198.69 133.36 191.57 119.69 206.75 122.36 217.56 111.37 219.71 126.64 233.5 133.52 219.65 140.28 217.36 155.52"/><polygon class="cls-3" points="263.79 223.06 241.63 218.95 225.66 234.87 222.73 212.52 202.65 202.26 223.01 192.56 226.56 170.29 242.07 186.66 264.35 183.15 253.58 202.96 263.79 223.06"/><polygon class="cls-3" points="352.64 224.8 363.95 203.93 353.17 182.78 376.51 187.09 393.29 170.29 396.41 193.83 417.57 204.6 396.15 214.84 392.45 238.28 376.09 221.08 352.64 224.8"/><polygon class="cls-3" points="270.42 84.78 250.24 77.06 232.44 89.31 233.54 67.73 216.4 54.59 237.26 48.98 244.46 28.61 256.25 46.71 277.85 47.27 264.27 64.07 270.42 84.78"/></g><g id="Layer_3" data-name="Layer 3"><path class="cls-4" d="M282.69,350.89c-.49.28-1,.55-1.5.82l1.44.55C282.64,351.8,282.66,351.34,282.69,350.89Z" transform="translate(-8.65 -7.65)"/><path class="cls-5" d="M414.34,291.38a73.06,73.06,0,0,0-14.62,1.47C395.67,268.74,365.38,250,328.58,250c-23.66,0-44.64,7.75-57.68,19.69A95,95,0,0,0,238,264c-38.82,0-70.29,22-70.29,49.07A35.79,35.79,0,0,0,171,328c-19,1.83-33.39,10.67-33.39,21.31a14,14,0,0,0,4.14,9.52c-10.41,6.34-16.52,14-16.52,22.31,0,21.73,42,39.35,93.73,39.35,45.73,0,83.81-13.75,92.06-31.94a69,69,0,0,0,25.54,4.77c25.34,0,46.59-13,52.37-30.53a69.92,69.92,0,0,0,25.43,4.65c29.3,0,53.06-17,53.06-38S443.64,291.38,414.34,291.38ZM282.69,350.89c0,.45-.05.91-.06,1.37l-1.44-.55C281.69,351.44,282.2,351.17,282.69,350.89Z" transform="translate(-8.65 -7.65)"/><ellipse class="cls-6" cx="271.89" cy="343.84" rx="20.46" ry="10.84"/></g></svg>